<?xml version="1.0" encoding="utf-8"?>
<svg version="1.1" id="Capa_1" x="0px" y="0px" viewBox="0 0 66.816 66.816" style="enable-background:new 0 0 66.816 66.816;" xmlns="http://www.w3.org/2000/svg">
  <g>
    <path d="M39.168,4.637c-1.34-0.653-2.938-0.483-4.11,0.436l-12.491,9.789c-0.682-0.199-1.398-0.312-2.144-0.312H7.609 C3.407,14.55,0,17.958,0,22.159v22.193c0,4.201,3.407,7.607,7.609,7.607h12.814c0.64,0,1.257-0.088,1.849-0.234l12.786,10.018 c0.7,0.548,1.55,0.83,2.404,0.83c0.581,0,1.165-0.13,1.706-0.395c1.34-0.651,2.191-2.012,2.191-3.504V8.14 C41.359,6.648,40.508,5.289,39.168,4.637z"/>
    <path d="M 60.168 35.948 L 47.99 35.948 C 46.619 35.948 45.509 34.838 45.509 33.466 C 45.509 32.095 46.619 30.984 47.99 30.984 L 60.169 30.984 C 61.539 30.984 62.65 32.095 62.65 33.466 C 62.65 34.838 61.539 35.948 60.168 35.948 Z"/>
    <path d="M 60.692 32.644 L 50.144 38.734 C 48.956 39.42 47.439 39.013 46.753 37.826 C 46.067 36.638 46.474 35.121 47.66 34.434 L 58.208 28.345 C 59.396 27.659 60.913 28.066 61.599 29.253 C 62.284 30.442 61.88 31.959 60.692 32.644 Z" transform="matrix(0.501156, -0.865357, 0.865357, 0.501156, -1.998271, 63.61255)"/>
  </g>
  <g/>
  <g/>
  <g/>
  <g/>
  <g/>
  <g/>
  <g/>
  <g/>
  <g/>
  <g/>
  <g/>
  <g/>
  <g/>
  <g/>
  <g/>
</svg>